<svg width="1000" height="480" viewBox="0 0 1000 480" xmlns="http://www.w3.org/2000/svg" font-family="Inter, Arial, sans-serif">
  <style>
    .title { font-size: 20px; font-weight: 600; fill: #2d3748; }
    .box { fill: #f8fafc; stroke: #94a3b8; stroke-width: 1.5; rx: 8; }
    .label { font-size: 14px; fill: #1e293b; text-anchor: middle; }
    .arrow { stroke: #64748b; stroke-width: 2; marker-end: url(#arrowhead); }
  </style>
  <defs>
    <marker id="arrowhead" markerWidth="10" markerHeight="7" refX="9" refY="3.5" orient="auto">
      <polygon points="0 0, 10 3.5, 0 7" fill="#64748b" />
    </marker>
  </defs>

  <!-- Title -->
  <text x="500" y="40" class="title" text-anchor="middle">🌱 Plant Butler – Sprint 2 Cloud Backend Architecture</text>

  <!-- Hardware -->
  <rect x="40" y="100" width="160" height="80" class="box" />
  <text x="120" y="130" class="label">MiFlora / VegTrug</text>
  <text x="120" y="150" class="label">Sensors (BLE)</text>

  <!-- Theengs Bridge -->
  <rect x="230" y="100" width="160" height="80" class="box" />
  <text x="310" y="130" class="label">ESP32</text>
  <text x="310" y="150" class="label">Theengs Gateway</text>

  <!-- HiveMQ -->
  <rect x="420" y="100" width="160" height="80" class="box" />
  <text x="500" y="130" class="label">HiveMQ Cloud</text>
  <text x="500" y="150" class="label">(MQTT Broker 8883)</text>

  <!-- Render Worker -->
  <rect x="610" y="100" width="160" height="80" class="box" />
  <text x="690" y="130" class="label">Render Worker</text>
  <text x="690" y="150" class="label">Node.js + Supabase Client</text>

  <!-- Supabase -->
  <rect x="800" y="100" width="160" height="160" class="box" />
  <text x="880" y="130" class="label">Supabase</text>
  <text x="880" y="150" class="label">Postgres + Auth + Cron</text>

  <!-- Data Arrows -->
  <line x1="200" y1="140" x2="230" y2="140" class="arrow" />
  <line x1="390" y1="140" x2="420" y2="140" class="arrow" />
  <line x1="580" y1="140" x2="610" y2="140" class="arrow" />
  <line x1="770" y1="140" x2="800" y2="140" class="arrow" />

  <!-- Lower Layer: Automations -->
  <rect x="800" y="300" width="160" height="120" class="box" />
  <text x="880" y="330" class="label">Automations</text>
  <text x="880" y="350" class="label">• Hourly Rollups</text>
  <text x="880" y="370" class="label">• Latest Metrics Trigger</text>
  <text x="880" y="390" class="label">• 2-Year Data Purge</text>

  <line x1="880" y1="260" x2="880" y2="300" class="arrow" />

  <!-- Labels -->
  <text x="150" y="200" class="label" font-size="13">(Bluetooth LE)</text>
  <text x="460" y="200" class="label" font-size="13">(MQTT / TLS 8883)</text>
  <text x="740" y="200" class="label" font-size="13">(HTTPS Supabase API)</text>
</svg>
